<?xml version="1.0" encoding="UTF-8"?>
<svg width="116px" height="35px" viewBox="0 0 116 35" version="1.1" xmlns="http://www.w3.org/2000/svg" xmlns:xlink="http://www.w3.org/1999/xlink">
    <!-- Generator: Sketch 51.1 (57501) - http://www.bohemiancoding.com/sketch -->
    <title>amazon-seeklogo.com</title>
    <desc>Created with Sketch.</desc>
    <defs></defs>
    <g id="Page-1" stroke="none" stroke-width="1" fill="none" fill-rule="evenodd">
        <g id="logos" transform="translate(-422.000000, -97.000000)" fill="#000">
            <g id="amazon-seeklogo.com" transform="translate(422.000000, 97.000000)">
                <path d="M71.9244772,27.3858721 C65.1887439,32.3562791 55.4227649,35 47.0137825,35 C35.2277754,35 24.6152,30.6441279 16.5831158,23.3926163 C15.9526456,22.8232558 16.5151439,22.0451163 17.2730105,22.4862791 C25.938414,27.528314 36.6535579,30.5647674 47.7211789,30.5647674 C55.1871018,30.5647674 63.3942035,29.015407 70.9456,25.812907 C72.0844351,25.3294186 73.0392982,26.5633721 71.9244772,27.3858721" id="Fill-1"></path>
                <path d="M74.728014,24.1866279 C73.8659509,23.083314 69.0322105,23.6636628 66.8611789,23.923314 C66.2034386,24.0022674 66.1012772,23.4284302 66.6943018,23.011686 C70.5499789,20.3036628 76.8677053,21.0858721 77.6019649,21.9918023 C78.3423298,22.906686 77.4086316,29.2404651 73.7947228,32.2630814 C73.2387368,32.7282558 72.7104281,32.480407 72.9566737,31.8658721 C73.7694877,29.8358721 75.5900772,25.2899419 74.728014,24.1866279" id="Fill-2"></path>
                <path d="M67.0142175,3.88174419 L67.0142175,1.25063953 C67.0158456,0.850174419 67.3178526,0.583197674 67.6813193,0.584011628 L79.4758737,0.582790698 C79.8527719,0.582790698 80.155593,0.8575 80.156407,1.24738372 L80.155593,3.50406977 C80.1527439,3.88255814 79.8340491,4.37662791 79.2674807,5.16046512 L73.1581474,13.8823837 C75.4260491,13.8294767 77.8250105,14.1684884 79.8857404,15.3267442 C80.3501474,15.5876163 80.4746947,15.9750581 80.5113263,16.3539535 L80.5113263,19.1612791 C80.5113263,19.548314 80.0880281,19.9959884 79.6431579,19.7631977 C76.0125614,17.8618023 71.1951018,17.6538372 67.1810947,19.7859884 C66.7708211,20.0045349 66.3414175,19.5633721 66.3414175,19.1763372 L66.3414175,16.5073837 C66.3414175,16.0804651 66.3495579,15.3499419 66.7801825,14.6987791 L73.8586246,4.54552326 L67.6955649,4.54430233 C67.3190737,4.54430233 67.0166596,4.27569767 67.0142175,3.88174419" id="Fill-3"></path>
                <path d="M23.9908351,20.3162791 L20.4029754,20.3162791 C20.0614877,20.2938953 19.7883789,20.037093 19.7611088,19.7098837 L19.7635509,1.29540698 C19.7635509,0.927093023 20.0732912,0.63244186 20.4558877,0.63244186 L23.7975018,0.631627907 C24.1471298,0.649534884 24.4279719,0.914069767 24.4499509,1.24982558 L24.4499509,3.65424419 L24.5171088,3.65424419 C25.3881263,1.32918605 27.0292211,0.244186047 29.2397333,0.244186047 C31.4840281,0.244186047 32.8906807,1.32918605 33.895607,3.65424419 C34.7662175,1.32918605 36.7422877,0.244186047 38.8526737,0.244186047 C40.3598596,0.244186047 42.0009544,0.864011628 43.0058807,2.25912791 C44.1447158,3.80889535 43.9106807,6.05662791 43.9106807,8.03290698 L43.9078316,19.653314 C43.9078316,20.0212209 43.5976842,20.3162791 43.2159018,20.3162791 L39.6317053,20.3162791 C39.2714947,20.2930814 38.9873965,20.0077907 38.9873965,19.6549419 L38.9865825,9.8927907 C38.9865825,9.11790698 39.0537404,7.1802907 38.8860491,6.44406977 C38.6182316,5.20401163 37.8143719,4.85523256 36.7760702,4.85523256 C35.9054596,4.85523256 35.0006596,5.43639535 34.6323088,6.36674419 C34.2639579,7.29668605 34.2977404,8.84645349 34.2977404,9.8927907 L34.2977404,19.653314 C34.2977404,20.0212209 33.987593,20.3162791 33.6054035,20.3162791 L30.021614,20.3162791 C29.6614035,20.2930814 29.3773053,20.0077907 29.3773053,19.6549419 L29.3736421,9.8927907 C29.3736421,7.83918605 29.7086175,4.81656977 27.1631298,4.81656977 C24.5838596,4.81656977 24.684393,7.76145349 24.684393,9.8927907 L24.6831719,19.653314 C24.6835789,20.0212209 24.3734316,20.3162791 23.9908351,20.3162791" id="Fill-4"></path>
                <path d="M90.3428351,4.00302326 C87.696407,4.00302326 87.5291228,7.60639535 87.5291228,9.85372093 C87.5291228,12.1014535 87.4957474,16.9066279 90.3094596,16.9066279 C93.0897965,16.9066279 93.2232982,13.0313953 93.2232982,10.6676744 C93.2232982,9.11790698 93.1565474,7.25802326 92.6876632,5.78517442 C92.2851228,4.50645349 91.4812632,4.00302326 90.3428351,4.00302326 Z M90.3094596,0.244186047 C95.6352842,0.244186047 98.5153404,4.81656977 98.5153404,10.6290116 C98.5153404,16.2473256 95.3340912,20.7041279 90.3094596,20.7041279 C85.0841684,20.7041279 82.2370807,16.1313372 82.2370807,10.4352907 C82.2370807,4.70017442 85.1175439,0.244186047 90.3094596,0.244186047 Z" id="Fill-5"></path>
                <path d="M105.422021,20.3162791 L101.847186,20.3162791 C101.487789,20.2930814 101.203284,20.0077907 101.203284,19.6549419 L101.197586,1.23354651 C101.227705,0.896976744 101.525235,0.63244186 101.886667,0.63244186 L105.215256,0.631627907 C105.528253,0.6475 105.786709,0.861569767 105.852646,1.14726744 L105.852646,3.96395349 L105.920211,3.96395349 C106.925137,1.44517442 108.331382,0.244186047 110.810119,0.244186047 C112.417432,0.244186047 113.992182,0.825348837 114.997109,2.41418605 C115.935284,3.88662791 115.935284,6.36674419 115.935284,8.14889535 L115.935284,19.7359302 C115.894582,20.0627326 115.601937,20.3162791 115.247425,20.3162791 L111.650204,20.3162791 C111.318077,20.2947093 111.05026,20.0509302 111.011186,19.7359302 L111.011186,9.73773256 C111.011186,7.7227907 111.245628,4.77790698 108.766891,4.77790698 C107.895874,4.77790698 107.092014,5.35906977 106.690695,6.25034884 C106.188435,7.37401163 106.12087,8.49767442 106.12087,9.73773256 L106.12087,19.653314 C106.114358,20.0212209 105.804211,20.3162791 105.422021,20.3162791" id="Fill-6"></path>
                <g id="Group-10">
                    <path d="M61.2296842,20.2702907 C60.991986,20.4831395 60.6496842,20.4973837 60.3818667,20.3537209 C59.1901193,19.3631395 58.9764351,18.9052907 58.325207,17.9627326 C56.3552421,19.9691279 54.959986,20.5706395 52.409207,20.5706395 C49.3883228,20.5706395 47.0382035,18.706686 47.0382035,14.9787791 C47.0382035,12.0660465 48.6158035,10.0856977 50.8649825,9.11465116 C52.8117474,8.26 55.5310316,8.10494186 57.6121123,7.87174419 L57.6121123,7.40575581 C57.6121123,6.55151163 57.6792702,5.54180233 57.1757895,4.80395349 C56.7390596,4.14383721 55.9001965,3.87197674 55.1614596,3.87197674 C53.7930667,3.87197674 52.5764912,4.57319767 52.2773333,6.02651163 C52.2154667,6.34965116 51.9793965,6.66953488 51.6541895,6.68581395 L48.1762246,6.30976744 C47.8827649,6.24343023 47.5563368,6.0077907 47.6409965,5.5597093 C48.4403789,1.3405814 52.2504702,0.0659302326 55.6653474,0.0659302326 C57.4106386,0.0659302326 59.693193,0.531918605 61.0693193,1.85255814 C62.8150175,3.48372093 62.6469193,5.65819767 62.6469193,8.0272093 L62.6469193,13.6170349 C62.6469193,15.2982558 63.3457684,16.0361047 64.0014737,16.9420349 C64.2306246,17.2684302 64.2823158,17.656686 63.9896702,17.8951744 C63.2566316,18.5093023 61.9545825,19.6406977 61.2378246,20.2780233 L61.2296842,20.2702907 Z M57.6121123,11.5223256 C57.6121123,12.9206977 57.6454877,14.0854651 56.9405333,15.3283721 C56.3698947,16.3380814 55.4638737,16.9591279 54.4565053,16.9591279 C53.0803789,16.9591279 52.2748912,15.9103488 52.2748912,14.3573256 C52.2748912,11.3017442 55.0161544,10.745814 57.6121123,10.745814 L57.6121123,11.5223256 Z" id="Fill-7"></path>
                    <path d="M14.1910737,20.2702907 C13.9533754,20.4831395 13.6106667,20.4973837 13.3432561,20.3537209 C12.1511018,19.3631395 11.9378246,18.9052907 11.2861895,17.9627326 C9.3170386,19.9691279 7.92178246,20.5706395 5.37059649,20.5706395 C2.34930526,20.5706395 0,18.706686 0,14.9787791 C0,12.0660465 1.5776,10.0856977 3.82637193,9.11465116 C5.77354386,8.26 8.49242105,8.10494186 10.5735018,7.87174419 L10.5735018,7.40575581 C10.5735018,6.55151163 10.6406596,5.54180233 10.1371789,4.80395349 C9.70085614,4.14383721 8.86117895,3.87197674 8.12325614,3.87197674 C6.75486316,3.87197674 5.53747368,4.57319767 5.23912982,6.02651163 C5.17685614,6.34965116 4.94119298,6.66953488 4.61557895,6.68581395 L1.13802105,6.30976744 C0.844154386,6.24343023 0.517319298,6.0077907 0.602385965,5.5597093 C1.4013614,1.3405814 5.21185965,0.0659302326 8.62632982,0.0659302326 C10.3720281,0.0659302326 12.6545825,0.531918605 14.0311158,1.85255814 C15.776407,3.48372093 15.6087158,5.65819767 15.6087158,8.0272093 L15.6087158,13.6170349 C15.6087158,15.2982558 16.3067509,16.0361047 16.9628632,16.9420349 C17.191607,17.2684302 17.2432982,17.656686 16.9510596,17.8951744 C16.2184281,18.5093023 14.9155649,19.6406977 14.1996211,20.2780233 L14.1910737,20.2702907 Z M10.5735018,11.5223256 C10.5735018,12.9206977 10.6072842,14.0854651 9.90192281,15.3283721 C9.33169123,16.3380814 8.42526316,16.9591279 7.41830175,16.9591279 C6.04217544,16.9591279 5.2362807,15.9103488 5.2362807,14.3573256 C5.2362807,11.3017442 7.97795088,10.745814 10.5735018,10.745814 L10.5735018,11.5223256 Z" id="Fill-9"></path>
                </g>
            </g>
        </g>
    </g>
</svg>