<svg xmlns="http://www.w3.org/2000/svg" width="144" height="18" fill="currentColor" viewBox="0 0 144 18"><path d="M5.237 8.139a.501.501 0 0 0-.853.093L.056 16.888a.517.517 0 0 0 .461.75h6.027c.2.002.381-.113.464-.294 1.298-2.667.512-6.765-1.77-9.205ZM8.413.277a11.417 11.417 0 0 0-.667 11.272l2.92 5.795a.518.518 0 0 0 .462.288h6.026a.535.535 0 0 0 .446-.744L9.293.278a.488.488 0 0 0-.88 0Zm127.323 9.227 4.376 8.133H144V3.12h-3.094v9.368l-1.17-2.717-3.515-6.651h-4.883v14.517h3.094V6.565l1.304 2.939ZM111.664 3.12h-3.382v14.517h3.382V3.12Zm-7.283 10.224c0-2.541-1.346-3.733-5.15-4.552-2.098-.464-2.604-.928-2.604-1.6 0-.84.749-1.195 2.133-1.195 1.68 0 3.339.51 4.907 1.216v-3.32a11.08 11.08 0 0 0-4.8-.994c-3.758 0-5.702 1.634-5.702 4.309 0 2.133.995 3.843 4.883 4.595 2.32.485 2.808.861 2.808 1.634 0 .774-.488 1.238-2.133 1.238a12.026 12.026 0 0 1-5.635-1.523v3.49c1.17.574 2.717 1.214 5.6 1.214 4.064 0 5.677-1.81 5.677-4.507m-14.058-.005c0-2.541-1.334-3.733-5.147-4.552-2.099-.464-2.608-.928-2.608-1.6 0-.84.752-1.195 2.133-1.195 1.68 0 3.336.51 4.904 1.216v-3.32a11.077 11.077 0 0 0-4.8-.994c-3.754 0-5.7 1.634-5.7 4.309 0 2.133.994 3.843 4.884 4.595 2.32.485 2.806.861 2.806 1.634 0 .774-.486 1.238-2.134 1.238a12.026 12.026 0 0 1-5.634-1.523v3.49c1.173.574 2.72 1.214 5.6 1.214 4.066 0 5.677-1.81 5.677-4.507m-34.043 1.15V3.12h-3.403v14.517h6.95l1.093-3.138h-4.64Zm-9.973 3.138V6.256h4.021V3.12H39.112v3.136h3.757v11.381h3.403ZM34.179 3.12H29.72l-5.067 14.517h3.88l.72-2.445a9.59 9.59 0 0 0 5.414 0l.717 2.445h3.867L34.179 3.12Zm-2.23 9.456a6.593 6.593 0 0 1-1.866-.267l1.866-6.336 1.867 6.336a6.594 6.594 0 0 1-1.867.267ZM71.77 3.12h-4.458l-5.067 14.517h3.867l.72-2.445c1.768.52 3.645.52 5.413 0l.717 2.445h3.867L71.771 3.12Zm-2.229 9.456a6.593 6.593 0 0 1-1.867-.267l1.867-6.336 1.867 6.336a6.594 6.594 0 0 1-1.867.267Zm54.304-9.456h-4.459l-5.066 14.517h3.866l.718-2.445c1.768.52 3.645.52 5.413 0l.717 2.445h3.87L123.845 3.12Zm-2.229 9.456a6.594 6.594 0 0 1-1.867-.267l1.867-6.336 1.866 6.336a6.587 6.587 0 0 1-1.866.267Z"></path></svg>