<svg xmlns="http://www.w3.org/2000/svg" width="144" height="40" viewBox="0 0 144 40" fill="currentColor"><path d="M143.919 29.4321C143.866 29.2884 143.784 29.1568 143.68 29.0446C143.575 28.9326 143.449 28.8431 143.309 28.7815C142.997 28.6552 142.648 28.6552 142.336 28.7815C142.194 28.842 142.068 28.9317 141.964 29.0446C141.859 29.1561 141.779 29.288 141.728 29.4321C141.615 29.7413 141.615 30.0802 141.728 30.3894C141.779 30.5335 141.859 30.6654 141.964 30.7769C142.068 30.889 142.195 30.9776 142.336 31.0367C142.648 31.163 142.997 31.163 143.309 31.0367C143.449 30.9766 143.575 30.8881 143.68 30.7769C143.784 30.6647 143.866 30.533 143.919 30.3894C144.027 30.0794 144.027 29.7421 143.919 29.4321ZM143.747 30.3183C143.702 30.4412 143.635 30.5545 143.549 30.6525C143.46 30.7471 143.353 30.8228 143.235 30.8749C143.106 30.9327 142.965 30.9614 142.824 30.9591C142.688 30.96 142.554 30.9333 142.43 30.8805C142.305 30.8278 142.192 30.7502 142.099 30.6525C142.01 30.5558 141.941 30.4421 141.897 30.3183C141.849 30.188 141.824 30.05 141.826 29.9111C141.825 29.7709 141.849 29.6316 141.897 29.4999C141.941 29.3754 142.01 29.261 142.099 29.163C142.191 29.0635 142.303 28.9846 142.428 28.9317C142.553 28.8787 142.688 28.8528 142.824 28.8558C142.965 28.854 143.105 28.8816 143.235 28.9367C143.353 28.9912 143.46 29.068 143.549 29.163C143.635 29.2622 143.702 29.3764 143.747 29.4999C143.795 29.6316 143.819 29.7709 143.818 29.9111C143.819 30.05 143.795 30.188 143.747 30.3183ZM143.302 29.8163C143.353 29.747 143.38 29.663 143.38 29.5769C143.381 29.5215 143.372 29.4663 143.352 29.4147C143.331 29.3632 143.301 29.3162 143.262 29.2769C143.167 29.194 143.043 29.1517 142.918 29.1591H142.341V30.5953H142.587V30.0124H142.854L143.188 30.5953H143.471L143.1 29.9677C143.182 29.9397 143.252 29.8868 143.302 29.8163ZM142.86 29.8196H142.587V29.365H142.874C142.933 29.365 142.991 29.3824 143.039 29.415C143.066 29.4345 143.087 29.4606 143.101 29.4907C143.115 29.5207 143.12 29.5538 143.117 29.5867C143.12 29.6205 143.114 29.6544 143.1 29.6851C143.085 29.7159 143.064 29.7425 143.036 29.7624C142.985 29.7995 142.923 29.8195 142.86 29.8196ZM24.9447 3.07301C24.9447 2.0467 24.492 1.35131 23.2815 1.35131C19.3447 1.35131 14.3342 8.49995 12.527 11.4657C10.079 15.4802 7.28096 21.5933 7.28096 26.4696C7.28096 28.3617 8.09872 29.7722 10.1171 29.7722C14.4033 29.7722 17.7539 24.1939 17.7539 20.4571C17.8036 19.6319 17.5968 18.8115 17.1618 18.1084C17.4068 17.7897 17.7224 17.5321 18.0839 17.3561C18.4453 17.18 18.8427 17.0903 19.2447 17.094C20.696 17.094 21.4427 18.0453 21.4427 19.6696C21.4427 24.9156 15.8842 31.7715 9.26516 31.7715C4.2494 31.7715 1.55666 29.2261 1.55666 24.3104C1.55666 14.3552 12.0171 0 23.473 0C26.1578 0 28.8966 0.814469 28.8966 3.76511C28.8966 7.65127 24.9269 10.4032 21.5664 11.4999C20.0732 11.9754 18.5151 12.2156 16.948 12.2118C16.0587 12.2156 15.1711 12.1341 14.2974 11.9683L14.3908 11.5841C18.5217 11.4466 24.9447 7.35456 24.9447 3.07301ZM137.064 8.87732L136.88 8.53192C138.021 7.57601 139.188 5.77404 139.188 4.20497C139.215 3.70787 139.075 3.21604 138.789 2.80855C138.503 2.40106 138.088 2.10159 137.611 1.95828C137.874 1.5287 138.246 1.17657 138.689 0.937885C139.133 0.699197 139.632 0.582505 140.135 0.599733C140.484 0.572411 140.835 0.621674 141.162 0.744074C141.49 0.866473 141.788 1.05905 142.033 1.30834C142.279 1.55762 142.467 1.85759 142.585 2.18725C142.703 2.51691 142.747 2.8683 142.714 3.21682C142.714 6.0701 139.305 8.05364 137.064 8.87732ZM2.05513e-05 3.22261C-0.0200653 2.86552 0.0370736 2.5083 0.167543 2.17529C0.298012 1.84228 0.498744 1.54131 0.756058 1.2929C1.01337 1.04449 1.32122 0.854476 1.65861 0.73581C1.99601 0.617145 2.35503 0.572616 2.71119 0.60526C3.2012 0.588043 3.68655 0.705609 4.11436 0.945155C4.54218 1.1847 4.89607 1.53704 5.13749 1.9638C4.66073 2.10706 4.24602 2.40654 3.9601 2.81406C3.67418 3.22158 3.53367 3.71344 3.56118 4.2105C3.56118 5.77957 4.72762 7.58153 5.86906 8.53745L5.68551 8.88284C3.44342 8.05877 2.05513e-05 6.07588 2.05513e-05 3.22261ZM128.649 26.7333L129.012 26.9682C127.95 29.2313 126.365 31.628 123.715 31.628C121.596 31.628 120.439 30.3169 120.439 28.1675C120.439 26.3307 121.561 23.8452 122.287 22.1669L131.618 0.878876H135.876L125.739 24.5472C125.291 25.463 125.003 26.4491 124.89 27.4623C124.875 27.596 124.891 27.7313 124.935 27.8583C124.98 27.9852 125.052 28.1008 125.146 28.1965C125.241 28.2922 125.355 28.3657 125.482 28.4117C125.608 28.4576 125.743 28.4749 125.877 28.4623C127.032 28.4623 127.834 27.6833 128.649 26.7333ZM119.175 26.7386L119.539 26.9708C118.472 29.2313 116.873 31.628 114.222 31.628C112.103 31.628 110.946 30.3169 110.946 28.1675C110.946 26.3307 112.068 23.8452 112.794 22.1669L122.126 0.878876H126.384L116.246 24.5472C115.798 25.463 115.511 26.4491 115.397 27.4623C115.382 27.596 115.398 27.7313 115.442 27.8583C115.487 27.9852 115.559 28.1008 115.653 28.1965C115.748 28.2922 115.862 28.3657 115.989 28.4117C116.115 28.4576 116.25 28.4749 116.384 28.4623C117.543 28.4623 118.422 27.6432 119.175 26.7386ZM58.9641 31.6281C57.0786 31.6281 56.024 30.5011 56.024 28.5373C56.024 25.4084 60.3595 18.9578 60.3595 16.8071C60.3741 16.6671 60.3575 16.5255 60.3109 16.3926C60.2644 16.2597 60.1891 16.1387 60.0903 16.0383C59.9915 15.9379 59.8718 15.8606 59.7397 15.8119C59.6075 15.7631 59.4663 15.7442 59.326 15.7565C57.5332 15.7565 56.2049 18.5861 55.5951 20.0801L51.0721 31.1176L46.6517 31.1215L51.7596 18.6637C52.0343 18.073 52.2099 17.4411 52.2793 16.7933C52.2926 16.6541 52.2751 16.5136 52.2279 16.3819C52.1806 16.2502 52.1049 16.1306 52.0062 16.0316C51.9074 15.9325 51.7879 15.8565 51.6564 15.809C51.5248 15.7614 51.3844 15.7435 51.2451 15.7565C49.476 15.7565 48.0721 18.5834 47.4774 20.0301L42.9405 31.1215H38.509L45.6484 13.7124H49.7609L48.851 15.9756C50.0971 14.5953 51.6635 13.392 53.6655 13.392C54.0425 13.3589 54.4222 13.4042 54.7809 13.5249C55.1396 13.6456 55.4694 13.8392 55.7496 14.0935C56.0299 14.3478 56.2545 14.6573 56.4094 15.0026C56.5643 15.3479 56.6461 15.7215 56.6497 16.0999C58.028 14.6137 59.599 13.392 61.6668 13.392C63.451 13.392 64.7891 14.4519 64.7891 16.2321C64.7891 19.5604 60.5865 25.3584 60.5865 27.6038C60.5699 27.7154 60.5789 27.8294 60.6129 27.937C60.6468 28.0446 60.7048 28.1431 60.7825 28.225C60.8601 28.3069 60.9554 28.3701 61.0611 28.4097C61.1667 28.4494 61.2801 28.4644 61.3924 28.4538C62.3602 28.4538 63.1753 27.4702 63.7996 26.7327L64.1648 26.965C63.0924 29.386 61.626 31.6281 58.9641 31.6281ZM141.58 13.6195C141.13 14.497 140.906 15.473 140.928 16.4589C140.928 18.5694 141.465 20.9497 141.465 24.1135C141.465 28.7246 138.486 31.7016 134.036 31.7016C131.35 31.7016 129.885 30.6148 129.885 29.2937C129.891 28.994 129.985 28.7027 130.155 28.4556C130.324 28.2086 130.563 28.0167 130.84 27.9036C131.216 28.8371 131.951 29.4523 133.438 29.4523C136.284 29.4523 137.228 26.9023 137.228 24.4964C137.228 22.4043 137.067 20.6095 137.067 18.5438C137.067 18.2819 137.114 17.6701 137.114 17.6701C136.032 18.5569 133.792 21.5003 132.977 22.401L132.612 22.1615C133.889 19.7047 135.331 17.3367 136.926 15.0734C137.335 14.544 137.865 14.1199 138.471 13.8361C139.076 13.5524 139.741 13.4172 140.41 13.4418C140.807 13.4384 141.202 13.4984 141.58 13.6195ZM38.3728 26.7331C37.7267 27.5055 36.8688 28.4529 35.9379 28.4529C35.3793 28.4529 35.1636 28.1009 35.1636 27.5785C35.1636 26.7851 35.6392 25.7016 36.2182 24.3621C37.351 21.7364 39.9793 15.7062 40.7819 13.7128H36.5438L35.9905 15.0477C35.5484 13.8944 34.4261 13.397 33.1149 13.397C29.5899 13.397 26.8636 15.9483 25.0945 18.7332C23.5853 21.1075 21.7992 24.8312 21.7992 27.689C21.7992 30.0147 22.9136 31.5989 25.2281 31.5989C27.8149 31.5989 29.6925 29.3864 30.9675 27.3048C30.9052 27.6892 30.8726 28.0779 30.8702 28.4673C30.8702 30.3496 31.7899 31.6272 33.6353 31.6272C36.3116 31.6272 37.7912 29.118 38.7379 26.9654L38.3728 26.7331ZM33.8524 19.5996C31.8708 23.77 29.6636 28.466 27.6057 28.466C26.8452 28.466 26.5156 28.0035 26.5064 27.0772C26.4781 24.1864 30.8221 14.9733 33.8879 14.9733C34.0431 14.9566 34.2001 14.9755 34.3469 15.0286C34.4937 15.0817 34.6264 15.1676 34.735 15.2798C34.8435 15.392 34.9251 15.5275 34.9733 15.6759C35.0216 15.8244 35.0354 15.9819 35.0136 16.1365C35.0136 17.1207 34.4162 18.4115 33.8524 19.5996ZM95.7634 13.3957C94.8971 13.4226 94.045 13.6228 93.2573 13.9843C92.4696 14.3459 91.7624 14.8616 91.1772 15.501C92.2259 13.2181 97.1752 1.8142 99.9443 1.8142C100.06 1.80491 100.177 1.82188 100.285 1.86383C100.394 1.90579 100.492 1.97165 100.571 2.05654C100.651 2.14143 100.71 2.24315 100.745 2.35416C100.78 2.46517 100.789 2.5826 100.773 2.69775C100.773 4.63589 98.0443 8.12864 95.7476 9.80757L95.966 10.1569C99.0555 9.11679 103.876 6.41154 103.876 2.72275C103.876 1.29447 102.796 0.36684 101.017 0.36684C97.7811 0.36684 94.87 3.23656 92.6088 6.07273C88.1444 11.672 82.5181 21.4772 82.5181 27.5173C82.5181 29.9844 84.0115 31.6515 87.0227 31.6515C93.0568 31.6515 99.0825 22.6799 99.0825 17.1628C99.0825 15.092 98.1061 13.3957 95.7634 13.3957ZM88.1095 29.1943C87.2746 29.1943 87.0299 28.6384 87.0299 27.8522C87.1068 26.547 87.3645 25.2589 87.7957 24.0246C88.9207 20.2819 91.1068 15.5753 93.1792 15.5753C94.1048 15.5753 94.4654 16.3095 94.4654 17.3056C94.4654 20.4878 90.8443 29.1943 88.1095 29.1943ZM110.803 16.9123C111.105 15.8992 110.87 14.6347 109.178 14.6347C108.796 14.627 108.417 14.6981 108.064 14.8436C107.711 14.9892 107.392 15.206 107.127 15.4806C106.862 15.7552 106.656 16.0815 106.522 16.4393C106.389 16.797 106.331 17.1785 106.352 17.5597C106.352 18.9893 107.178 19.8821 109.015 20.4011L108.858 20.9393C105.848 21.3485 102.905 23.1373 102.905 26.1675C102.905 27.7037 103.714 28.6274 105.551 28.6274C106.985 28.61 108.373 28.1138 109.493 27.2175L109.811 27.4728C109.135 28.7192 108.136 29.7614 106.92 30.4907C105.704 31.22 104.315 31.6098 102.897 31.6195C100.035 31.6195 98.1309 30.0807 98.1309 27.461C98.1309 24.2333 100.388 22.1577 104.185 20.9195C103.617 20.6718 103.131 20.2681 102.783 19.7552C102.435 19.2424 102.24 18.6415 102.22 18.0222C102.22 14.7926 106.033 13.3538 109.303 13.3538C111.549 13.3538 113.433 14.0268 113.433 15.4485C113.433 16.6308 111.924 17.0505 110.803 16.9123ZM79.1193 13.3912C78.2601 13.4156 77.4157 13.621 76.6413 13.994C75.8669 14.367 75.1799 14.8991 74.6252 15.5557L76.5278 10.9136H72.1752L60.6418 39.0273H64.9891L69.1095 28.9852C69.3943 30.6497 70.6391 31.628 72.4838 31.628C78.2548 31.628 82.3469 21.9747 82.3469 17.1044C82.3469 14.9846 81.3693 13.3912 79.1193 13.3912ZM75.0529 25.6117C74.264 27.0452 73.0101 29.0518 71.4266 29.0518C71.2344 29.0669 71.0413 29.0392 70.8611 28.9708C70.6809 28.9023 70.5181 28.7947 70.3845 28.6558C70.2509 28.5169 70.1497 28.3501 70.0883 28.1674C70.0268 27.9847 70.0067 27.7906 70.0292 27.5992C70.1067 26.7345 70.3326 25.8897 70.697 25.1018L72.9259 19.6762C73.5719 18.0492 74.9588 15.7315 76.5647 15.7315C77.4917 15.7315 77.7989 16.4183 77.7989 17.4203C77.7989 19.5155 76.0864 23.7293 75.0529 25.6117Z" fill="black"></path></svg>