<svg height="80" viewBox="0 0 144 80" width="144" xmlns="http://www.w3.org/2000/svg"><path d="m142.667 66.7458c-1.031-.9245-2.151-2.5067-2.453-4.9422-.142-1.1733-.071-2.5955.32-4.2666.942-3.9466 1.138-5.031 1.085-5.5288-.125-1.0133-.854-1.4222-1.689-1.4222-1.76 0-4.142 1.76-4.765 4.1955-.977 3.6977-3.591 6.2044-5.351 6.2044-2.186 0-3.306-2.3467-3.609-4.7822-.746-6.0443 3.112-13.4931 8.729-13.4931 1.671 0 3.431.6755 3.645 2.3466.32 2.5955-2.436 2.0089-2.294 3.0933.125 1.0844 2.027 1.4222 3.271 1.4222 1.263 0 4.925-.8355 4.391-5.1199-.409-3.36-3.964-4.9422-8.071-4.9422-4.817 0-8.942 2.4356-11.751 5.8133-.373.2133-.764.5866-1.173 1.0666-.924 1.0845-2.595 2.0978-4.782 2.0978-.249 0-.836-.0889-.836-.0889 1.423-2.7733 2.436-5.6177 2.436-8.1243 0-4.0177-2.507-6.0444-5.28-6.0444-3.52 0-7.129 3.1111-7.129 9.1377 0 3.6088 1.422 6.5421 3.947 8.1243-2.845 4.6932-6.791 8.5509-7.378 8.5509-.338 0-.426-.3377-.498-.6755-.426-1.6-.835-4.6933-.835-6.631 0-3.4311.675-6.8799 1.92-10.5598.16-.4267.249-.8356.249-1.1733 0-1.0134-.676-1.5111-1.6-1.5111-1.849 0-4.6046 2.0977-5.2801 4.2666-.6756 2.0977-.9244 4.9421-.9244 8.4621 0 .6399.0177 1.2977.0355 1.9377-3.4133 4.4977-7.6443 6.0977-8.9598 6.0977-1.6534 0-1.9556-1.3511-1.7778-2.2578.8889-4.231 2.2222-9.1376 3.4311-12.4087.5511-1.5999.7999-3.0221.6933-3.8577-.1956-1.5111-1.28-2.2577-2.7022-2.2577-3.3599 0-8.9599 3.5199-12.5687 8.3021l1.1378-5.1733c.1066-.4977.1422-.9244.0889-1.2622-.1245-1.0133-.7645-1.4222-1.6-1.4222-4.1066 0-4.8355 2.08-5.2088 4.0888-.0889.48-1.28 6.6311-2.2578 11.6265-3.0755 2.7555-6.3999 4.5333-7.3065 4.5333-1.1378 0-1.5111-.9067-1.5467-1.5467-.0355-.7466.8-4.3732.9956-5.4754.1067-.4978.1422-.9244.0889-1.2622-.1067-.9245-.7467-1.3333-1.6711-1.3333-1.76 0-4.1599 1.6711-4.7644 4.1955-.9777 3.6977-3.5199 6.2043-5.2799 6.2043-2.1866 0-3.3955-2.3466-3.6799-4.6933-.64-5.191 2.6844-13.582 8.7287-13.582 1.6711 0 3.4311.5867 3.6266 2.2578.32 2.6844-2.3466 2.0088-2.2044 3.1821.1245 1.0845 2.0266 1.4222 3.2 1.4222 1.3333 0 4.9243-.8355 4.4088-5.031-.4089-3.3599-3.8933-5.031-8.071-5.031-9.6887 0-16.1953 9.4932-15.5909 17.0486-2.5066 2.9155-4.9954 4.6933-9.422 6.9332-2.5244 1.2622-5.3688 2.0089-8.0532 2.0089-8.0532 0-11.9643-7.3777-12.74651-13.742-2.00885-16.3553 12.42651-38.8083 22.47071-38.8083 2.3467 0 4.4444 2.0266 4.8355 5.191.6045 4.9244.4978 8.4266-4.6043 12.6754-.5689.4622-.7289 1.2266-.4267 1.6711.4267.6577 1.8133.7289 4.5866-.6578 5.4399-2.7377 7.3954-6.951 6.8088-11.8398-.6578-5.4221-5.4222-9.9554-11.7865-9.9554-3.0933 0-6.5066.9244-9.5465 2.7733-13.26204 8.0354-21.81301 26.3996-20.106373 40.3905.551103 4.4443 2.399963 9.2976 5.902133 12.5686 2.3644 2.1867 6.63104 4.8533 11.66204 4.8533 5.4577 0 10.0621-2.0977 14.1687-4.6933 2.791-1.7777 5.1377-3.9466 7.111-6.151 1.3866 2.9155 4.2666 4.8888 7.2709 4.8888 2.3467 0 4.5511-1.1733 6.2044-3.3599.4978 2.0089 1.92 3.3599 4.4266 3.3599 1.8488 0 5.7777-1.831 9.4398-4.551-.2311 1.1911-.3733 1.9378-.3733 1.9378-.1067.4977-.1422.9244-.0889 1.2622.1067.9244.7467 1.3333 1.5822 1.3333 1.76 0 4.32-1.6711 4.8355-4.2666l.8-3.6978c1.0311-4.6043 7.8043-11.5731 9.7243-11.5731.2489 0 .4444.16.48.4978.1422 1.1733-2.1511 5.031-3.1466 11.2353-.1956 1.1734-.2312 2.2578-.1067 3.1822.3378 2.7733 1.9911 4.6044 5.0132 4.6044 2.6133 0 8.1777-2.2044 12.1599-6.5244.3022 2.4178.8177 4.4978 1.5999 5.7777.3378.5867 1.0845.7467 1.7596.7467.836 0 2.009-.3378 3.271-1.0133 3.023-1.6711 6.951-5.4577 10.738-10.8976.498.0889.925.0889 1.422.0889 1.511 0 3.2-.5334 4.765-1.4934-.587 1.8845-.8 3.8222-.587 5.6.533 4.3554 4.302 7.7154 8.16 7.7154 2.258 0 4.462-1.1733 6.133-3.2711.516 2.7733 2.293 5.7066 6.613 7.4666.267.16.605.16.854.16.835 0 1.351-.5867 1.262-1.2622-.018-.1778-.231-.6045-.605-.9422zm-29.012-20.1064c-1.512-1.6-2.685-4.0177-2.685-6.3643 0-1.2622.427-2.7733 1.511-2.7733.925 0 2.098 1.3333 2.098 4.3555-.018 1.5999-.338 3.1821-.924 4.7821z" fill="currentColor"/></svg>