<?xml version="1.0" encoding="UTF-8"?>
<svg width="96px" height="40px" viewBox="0 0 96 40" version="1.1" xmlns="http://www.w3.org/2000/svg" xmlns:xlink="http://www.w3.org/1999/xlink">
    <!-- Generator: Sketch 51.1 (57501) - http://www.bohemiancoding.com/sketch -->
    <title>Disney</title>
    <desc>Created with Sketch.</desc>
    <defs></defs>
    <g id="Page-1" stroke="none" stroke-width="1" fill="none" fill-rule="evenodd">
        <g id="logos" transform="translate(-893.000000, -94.000000)" fill="#000">
            <g id="Disney" transform="translate(893.000000, 94.000000)">
                <path d="M48.1092766,4.51435897 C48.7787234,4.54974359 49.3782128,4.7974359 49.8714894,5.22205128 C50.5409362,5.85897436 50.7171064,6.92102564 50.4,7.77025641 C49.1662979,10.3189744 46.235234,12.0205128 44.2325106,12.5841026 C43.0345532,12.8671795 41.5189787,12.8671795 40.4262128,12.4425641 C39.8977021,12.7610256 39.4514043,13.7902564 38.8049362,13.3625641 C37.8699574,12.6292308 38.6793191,11.4815385 38.1395745,10.6671795 C38.0282553,10.4989744 37.7479149,10.4866667 37.6064681,10.2128205 C36.8665532,8.58461538 37.7831489,7.02717949 38.8049362,5.78820513 C40.5084255,3.88 45.3957447,1.75333333 48.1092766,4.51435897 Z M42.4350638,5.78820513 C41.483234,5.96512821 40.4083404,6.38102564 39.827234,7.0625641 C39.245617,7.74358974 38.8754043,8.40769231 39.2282553,9.11538462 C40.4614468,8.19538462 41.0604255,6.92102564 42.4350638,6.14205128 C42.4350638,6.00051282 42.6464681,5.89435897 42.4350638,5.78820513 Z M48.1797447,6.14205128 C45.7480851,5.92974359 43.9154043,7.77025641 42.1884255,9.54 C42.0827234,9.82307692 41.4485106,10.1415385 41.9417872,10.4605128 C44.2677447,10.6728205 46.488,10 48.1797447,8.44307692 C48.6730213,7.9825641 49.0253617,7.38102564 48.7787234,6.74410256 C48.6730213,6.49641026 48.426383,6.24871795 48.1797447,6.14205128 Z" id="Fill-2"></path>
                <path d="M69.2553191,16.6897436 C70.3833191,19.4507692 71.3346383,23.8041026 69.2553191,26.4584615 C68.6915745,27.0953846 67.7045106,27.6825641 67.0702979,27.2015385 C64.7443404,25.325641 63.7572766,22.6358974 62.3121702,20.2292308 C62.100766,20.1230769 62.100766,20.4061538 61.9950638,20.5123077 C61.4665532,22.954359 62.453617,26.14 60.7971064,28.0512821 C60.162383,28.1574359 59.5695319,27.8297436 59.352,27.2015385 C58.5411064,24.6887179 59.387234,22.0697436 59.5986383,19.5569231 C60.0919149,18.2825641 60.3038298,16.7958974 61.3960851,15.84 C63.1582979,16.5482051 64.0039149,18.5302564 65.0262128,19.9815385 C65.7661277,21.0784615 66.3651064,22.3174359 67.211234,23.3087179 C67.9511489,22.9897436 67.5870638,22.0194872 67.5635745,21.4323077 C67.2817021,19.1317949 66.6474894,17.0082051 66.048,14.8138462 C66.0132766,14.2476923 65.6956596,13.2917949 66.2946383,12.9379487 C67.8806809,13.645641 68.5506383,15.3092308 69.2553191,16.6897436" id="Fill-3"></path>
                <path d="M58.6115745,15.84 C58.6115745,16.3712821 58.188766,17.0348718 57.8364255,17.114359 C54.4529362,17.645641 50.6818723,17.3266667 47.5102979,18.3887179 C47.4045957,18.7779487 47.8626383,18.8487179 48.1092766,18.9548718 C50.8228085,19.3794872 53.6777872,19.485641 56.3208511,20.1584615 C57.7189787,20.5148718 58.224,22.1758974 58.3297021,23.5564103 C58.3945532,24.6446154 57.9773617,25.9630769 56.9203404,26.7061538 C54.312,28.3697436 50.3295319,28.2989744 47.6864681,26.7769231 C46.6759149,26.2076923 45.7128511,25.2902564 45.642383,24.1579487 C45.648,23.2579487 46.0299574,22.5502564 46.6641702,22.2112821 C49.2015319,21.1846154 52.338383,21.7507692 54.5234043,23.0605128 C54.6643404,23.7687179 53.9009362,23.7302564 53.5368511,23.9810256 C51.1051915,25.3964103 49.272,22.3882051 47.0165106,23.4851282 C46.6994043,23.6979487 46.4706383,24.2907692 46.8408511,24.4764103 C49.6248511,25.7153846 52.7259574,24.8302564 55.475234,24.0517949 C55.7923404,23.945641 56.1799149,23.6271795 56.2151489,23.3087179 C56.1094468,22.1758974 54.8405106,21.9276923 54.0301277,21.6092308 C51.6337021,21.0076923 48.9901277,21.0076923 46.4175319,20.76 C45.9242553,20.6538462 45.2956596,20.3087179 45.1485957,19.9107692 C44.8667234,19.0610256 44.8667234,17.8933333 45.5014468,17.1851282 C48.7787234,14.2830769 53.7482553,14.5307692 57.9068936,15.3092308 C58.188766,15.4153846 58.5058723,15.5215385 58.6115745,15.84" id="Fill-4"></path>
                <path d="M43.2107234,17.1851282 C43.5278298,20.5830769 43.704,23.7333333 43.6335319,27.3076923 C43.5630638,27.7682051 43.0345532,27.874359 42.6817021,28.0512821 C42.1179574,28.1574359 41.3897872,28.0364103 41.1661277,27.7328205 C40.3557447,26.4230769 40.637617,24.6533333 40.5671489,23.0605128 C40.6728511,20.5476923 40.637617,17.8225641 41.3422979,15.4866667 C41.477617,15.1471795 41.8713191,14.8492308 42.1884255,15.0615385 C43.0345532,15.4866667 43.1754894,16.3358974 43.2107234,17.1851282" id="Fill-5"></path>
                <path d="M82.3659574,16.6897436 C82.5365106,16.9758974 82.7126809,17.4179487 82.3659574,17.6097436 C80.7799149,18.3179487 78.6301277,17.9994872 76.7974468,18.2117949 C76.3041702,18.6364103 75.9165957,19.3441026 76.092766,19.9815385 C76.2689362,20.0876923 76.4277447,20.2497436 76.6212766,20.2292308 C77.7492766,20.3 79.4405106,19.6984615 80.1809362,20.76 C80.363234,21.0753846 80.1574468,22.2553846 79.6524255,22.2820513 C78.2777872,22.4589744 76.0161702,22.1076923 75.3528511,22.4589744 C74.5067234,23.0251282 74.5771915,24.1225641 74.2600851,25.0071795 C74.8590638,25.3964103 75.4876596,24.9984615 76.1984681,24.9010256 C77.5026383,24.6887179 78.947234,24.2994872 80.2514043,24.5825641 C80.4980426,25.0425641 80.850383,25.5384615 80.6037447,26.1046154 C78.3834894,27.874359 75.5172766,29.6882051 72.4626383,28.4051282 C71.3172766,27.8887179 70.8061277,26.14 71.1937021,24.6533333 C71.4403404,23.5912821 72.5331064,22.5651282 71.8636596,21.4323077 C71.7579574,20.9369231 72.0398298,20.5123077 72.4626383,20.4061538 C73.6253617,20.4061538 73.3787234,18.9548718 73.9782128,18.2825641 C73.3082553,17.5389744 71.6165106,17.5748718 71.7931915,16.0882051 C72.6035745,15.6635897 73.5901277,15.8051282 74.5067234,15.6635897 C76.5860426,15.2384615 78.912,14.9907692 81.0265532,15.2384615 C81.4498723,15.3241026 82.013617,16.1589744 82.3659574,16.6897436" id="Fill-6"></path>
                <path d="M32.0384681,8.62 C35.2902128,11.2897436 39.509617,15.84 38.9811064,21.0784615 C38.3468936,25.2194872 33.9768511,28.334359 30.2762553,29.325641 C26.6813617,30.3871795 22.1698723,30.2810256 18.5045106,29.4317949 C18.2578723,30.1041026 18.011234,30.9179487 17.2360851,31.2010256 C16.7422979,31.3779487 16.1080851,31.2723077 15.7205106,30.9533333 C14.6277447,29.9271795 15.5091064,27.9451282 13.9230638,27.3076923 C10.8214468,25.9984615 7.47319149,23.414359 5.88765957,20.2292308 C5.67625532,19.5917949 5.92289362,18.9548718 6.31046809,18.4594872 C8.74212766,16.5128205 11.8085106,15.734359 14.874383,15.1323077 C15.0505532,15.2030769 14.9800851,14.9553846 15.1210213,14.8846154 C15.2977021,12.7610256 15.3681702,10.6020513 16.037617,8.69076923 C16.1902979,8.42205128 16.5661277,8.33692308 16.812766,8.51384615 C18.7516596,10 17.8350638,12.7964103 18.6806809,14.8138462 C22.3812766,14.9907692 26.082383,15.1676923 29.0073191,17.2558974 C29.9938723,18.0702564 30.2348936,19.6246154 29.9234043,20.5123077 C29.6124255,21.4 28.5845106,22.034359 27.6326809,22.1051282 C26.9984681,22.1051282 25.8,22.1666667 25.8704681,21.68 C25.9409362,21.1933333 28.026383,20.3969231 27.3860426,19.7338462 C26.4653617,18.7794872 21.8588936,18.2117949 19.0039149,17.8579487 C18.6515745,17.7871795 18.3283404,17.8933333 18.3283404,18.2825641 C18.2578723,20.9723077 18.0464681,23.945641 18.5045106,26.5292308 C18.5397447,26.7061538 18.7516596,26.9184615 18.9278298,26.9538462 C23.9673191,27.7682051 29.2891915,27.3076923 33.2364255,24.405641 C35.0691064,22.9189744 35.6685957,20.8307692 35.3509787,18.5302564 C33.7649362,12.1241026 27.1041702,8.26615385 21.6413617,5.78820513 C16.3194894,3.45230769 10.4338723,2.24871795 4.12544681,2.56769231 C3.12102128,2.64102564 1.52885106,2.98923077 1.51710638,3.34615385 C1.5053617,3.70307692 3.32068085,3.59076923 3.10314894,4.26615385 C2.88612766,4.94205128 1.04170213,4.54102564 0.495319149,4.37230769 C-0.0510638298,4.20461538 0.00153191489,3.41692308 0.142978723,2.92153846 C1.51710638,0.479487179 5.35302128,0.281538462 7.08561702,0.195897436 C16.6718298,-0.0517948718 25.9409362,3.61435897 32.0384681,8.62 Z M14.7686809,18.105641 C12.3370213,18.1410256 9.76391489,18.3887179 7.50893617,19.2379487 C7.05038298,19.4148718 6.4866383,19.9107692 6.83897872,20.5123077 C7.75557447,21.7507692 9.0653617,22.7687179 10.2929362,23.4851282 C11.5205106,24.2020513 13.1474043,25.1133333 14.6277447,25.325641 C14.9800851,23.0251282 14.9800851,20.76 14.9453617,18.3887179 C14.8039149,18.3179487 14.9453617,18.1764103 14.7686809,18.105641 Z" id="Fill-7"></path>
                <path d="M87.6173617,14.8846154 C87.5116596,17.9641026 84.6566809,19.8753846 84.6566809,22.954359 C84.762383,23.0605128 84.8328511,23.2020513 84.9737872,23.1312821 C87.2650213,20.6184615 89.5205106,17.0435897 92.868766,15.9820513 C93.749617,15.9112821 94.5482553,16.6810256 94.877617,17.2558974 C96.0403404,19.5917949 95.7584681,22.8835897 94.1371915,25.0071795 C92.4633191,27.0923077 89.5557447,29.1841026 86.2427234,28.8297436 C84.8680851,32.2276923 83.916766,35.8025641 83.3877447,39.5189744 C83.106383,40.2620513 82.4364255,39.5897436 82.013617,39.4482051 C79.1591489,37.1830769 81.5024681,31.1866667 81.6965106,30.4225641 C81.8900426,29.6584615 82.6539574,27.8594872 83.2115745,26.3523077 C81.8726809,23.945641 82.7182979,21.0430769 83.8110638,18.8133333 C84.6566809,17.3266667 85.8199149,15.84 87.1945532,14.7076923 C87.3707234,14.7076923 87.5116596,14.7430769 87.6173617,14.8846154 Z M93.2915745,18.7071795 C92.868766,18.6364103 92.6925957,19.2025641 92.3397447,19.3092308 C90.7189787,21.1492308 89.0977021,22.9897436 88.2868085,25.1841026 C89.3795745,25.325641 90.2956596,24.6179487 91.2474894,24.2287179 C92.868766,23.2020513 93.8905532,21.5030769 93.7848511,19.5569231 C93.714383,19.2379487 93.4325106,18.9902564 93.2915745,18.7071795 Z" id="Fill-8"></path>
            </g>
        </g>
    </g>
</svg>