<svg xmlns="http://www.w3.org/2000/svg" width="145" height="80" viewBox="0 0 145 80" fill="currentColor"><path fill-rule="evenodd" clip-rule="evenodd" d="M23.6576 30.2841L24.5697 26H5.63821L3.12899 37.7833L1 47.2722H20.4642L21.4525 42.7579H10.6567L11.6449 38.1659H20.7682L21.7565 33.881H12.6325L13.3929 30.2841H23.6576Z" fill="black" stroke="black" stroke-width="0.6211" stroke-miterlimit="2.6131"></path><path fill-rule="evenodd" clip-rule="evenodd" d="M39.5474 38.1659H46.1622C46.3962 36.7827 46.831 34.7192 46.9226 33.0389C47.0281 31.0723 46.2569 29.6245 44.5658 28.677C42.1428 27.3254 38.5729 27.3978 35.8982 27.3C32.2314 27.1661 27.868 27.6418 25.5581 30.8961C24.3666 32.5748 23.6962 35.1756 23.433 37.2091C23.1074 39.6906 21.8628 43.8547 24.1134 45.8929C25.7867 47.4115 29.5305 47.9164 31.7072 47.8864C33.924 47.8548 36.076 47.7094 38.2551 47.2714L43.957 54.2333H52.8524L39.5474 38.1659ZM38.5591 38.319C37.8317 41.618 36.8411 44.3935 33.0088 44.3635C29.1611 44.335 30.438 40.1956 30.8044 37.7841C31.3224 34.3574 32.6386 30.7637 36.5825 31.05C40.5749 31.3409 39.1656 35.5758 38.5591 38.319Z" fill="black"></path><path fill-rule="evenodd" clip-rule="evenodd" d="M75.0536 28.3714L73.0008 37.7833L70.948 47.2721H78.7027L82.8845 28.3714H75.0536Z" fill="black"></path><path fill-rule="evenodd" clip-rule="evenodd" d="M101.892 32.1206L102.804 28.3714H85.8495L81.7439 47.2721H89.5756L91.3236 39.1603H99.0029L99.3069 37.7833L99.7633 35.6404H92.1602L92.9207 32.1206H101.892Z" fill="black"></path><path fill-rule="evenodd" clip-rule="evenodd" d="M50.1152 28.3714H58.0224L55.0575 41.7626C54.695 43.3998 56.222 44.2534 57.5313 44.3665C59.2154 44.5135 60.7263 43.4552 61.1397 41.6864L64.2569 28.3722H72.0879L68.9706 42.5285C67.6359 46.2192 64.544 47.6685 61.1304 48.0303C59.0137 48.2558 56.7731 48.0649 54.7527 47.7309L47.7584 39.3134L50.1152 28.3714Z" fill="black"></path><path fill-rule="evenodd" clip-rule="evenodd" d="M119.454 28.3714H129.414L132.455 33.269L137.397 28.3714H145L135.041 37.1706L141.579 47.2721H131.847L128.654 41.5325L123.181 47.2721H111.548L111.092 43.1396H103.032L100.22 47.2721H94.7455L107.974 28.3714H117.478L119.303 43.6746L125.613 37.8595L119.454 28.3714ZM105.617 39.0841L109.875 32.6563L110.635 39.0841H105.617Z" fill="black"></path></svg>