<svg xmlns="http://www.w3.org/2000/svg" width="144" height="26" fill="currentColor" viewBox="0 0 144 26">
  <path d="M134.143 12.732a4.802 4.802 0 014.961 1.865l-8.588 1.942c.297-1.818 1.683-3.367 3.627-3.807zm5.01 7.15a4.74 4.74 0 01-2.871 1.932 4.8 4.8 0 01-4.983-1.894l8.614-1.95 1.403-.317 2.684-.606a8.437 8.437 0 00-.224-1.712c-1.092-4.635-5.811-7.525-10.541-6.456-4.729 1.071-7.679 5.697-6.586 10.332 1.091 4.636 5.811 7.526 10.54 6.457a8.737 8.737 0 006.043-4.87l-4.079-.916zm-20.273 5.551v-12.29h-2.653V8.956h2.653V3.193h4.504v5.763h3.384v4.187h-3.384v12.29h-4.504zm-8.605 0h4.35V8.956h-4.35v16.477zm-.566-22.258c0-1.525 1.203-2.669 2.759-2.669 1.556 0 2.723 1.144 2.723 2.67 0 1.525-1.167 2.703-2.723 2.703-1.556 0-2.759-1.178-2.759-2.704zm-.949 5.827c-2.224.116-3.535.457-4.869 1.423v-1.47h-4.348v16.478h4.347v-8.08c0-2.542.621-3.989 4.87-4.13v-4.22zm-24.24 8.451c.109 2.405 2.201 4.421 4.763 4.421 2.599 0 4.727-2.122 4.727-4.633 0-2.476-2.128-4.597-4.727-4.597-2.561 0-4.654 2.05-4.763 4.42v.39zm-4.242 7.98V1.094l4.35-.984v10.072c1.344-1.075 2.937-1.525 4.67-1.525 4.951 0 8.912 3.813 8.912 8.597 0 4.75-3.96 8.632-8.912 8.632-1.733 0-3.326-.45-4.67-1.525v1.073h-4.35v-.001zm-9.259 0V13.059h-2.653V8.956h2.653V3.188l4.504-1.02v6.788h3.384v4.103h-3.383v12.374h-4.505zm-7.972 0V16.63c0-3.19-1.733-3.883-3.467-3.883-1.733 0-3.465.659-3.465 3.813v8.873h-4.35V8.956h4.35v1.226c.954-.694 2.121-1.526 4.421-1.526 3.678 0 6.862 2.115 6.862 7.28v9.497h-4.35zm-22.3-12.7a4.801 4.801 0 014.963 1.864l-8.588 1.942c.296-1.818 1.683-3.367 3.626-3.807zm5.011 7.149a4.74 4.74 0 01-2.871 1.932 4.803 4.803 0 01-4.983-1.894l8.615-1.95 1.403-.317 2.683-.606a8.486 8.486 0 00-.223-1.712C49.289 10.7 44.57 7.81 39.84 8.88c-4.73 1.071-7.678 5.697-6.586 10.332 1.092 4.636 5.81 7.526 10.541 6.457a8.734 8.734 0 006.042-4.87l-4.079-.916zm-22.752 5.551L16.25 8.956h4.74l4.28 11.175 4.315-11.175h4.74l-6.756 16.477h-4.563zM7.721 12.728a4.804 4.804 0 014.963 1.864l-8.589 1.944c.296-1.818 1.683-3.368 3.626-3.808zm5.01 7.15A4.74 4.74 0 019.86 21.81a4.803 4.803 0 01-4.983-1.895l8.615-1.949 1.403-.317 2.683-.608a8.5 8.5 0 00-.223-1.71c-1.093-4.636-5.811-7.527-10.542-6.457-4.73 1.07-7.677 5.697-6.586 10.333 1.092 4.636 5.812 7.526 10.541 6.456a8.735 8.735 0 006.043-4.87l-4.08-.916z"/>
</svg>
