<?xml version="1.0" encoding="UTF-8"?>
<svg width="134px" height="29px" viewBox="0 0 134 29" version="1.1" xmlns="http://www.w3.org/2000/svg" xmlns:xlink="http://www.w3.org/1999/xlink">
    <!-- Generator: Sketch 51.1 (57501) - http://www.bohemiancoding.com/sketch -->
    <title>microsoft-seeklogo.com</title>
    <desc>Created with Sketch.</desc>
    <defs></defs>
    <g id="Page-1" stroke="none" stroke-width="1" fill="none" fill-rule="evenodd">
        <g id="logos" transform="translate(-1186.000000, -100.000000)" fill="#000">
            <g id="microsoft-seeklogo.com" transform="translate(1186.000000, 100.000000)">
                <path d="M0,0 L13.6125686,0 C13.6117511,4.59857143 13.6125686,9.19714286 13.6117511,13.7957143 C9.07504576,13.7957143 4.53752288,13.7957143 0,13.7957143 L0,0" id="Fill-1"></path>
                <path d="M15.0024405,0 L28.6150092,0 C28.6150092,4.59857143 28.6158267,9.19714286 28.6141916,13.7957143 C24.0774863,13.7948857 19.5399634,13.7957143 15.0032581,13.7957143 C15.0016229,9.19714286 15.0024405,4.59857143 15.0024405,0" id="Fill-3"></path>
                <path d="M122.754301,5.25645714 C124.009274,4.42871429 125.630519,4.35165714 127.044918,4.74605714 C127.057181,5.59782857 127.046553,6.45042857 127.050641,7.30302857 C126.378597,7.00308571 125.588005,6.80754286 124.880805,7.10168571 C124.319951,7.32705714 123.986382,7.91037143 123.898902,8.49368571 C123.793435,9.2336 123.862111,9.98345714 123.844124,10.7275143 C125.27978,10.7308286 126.715436,10.7283429 128.151092,10.7291714 C128.161721,9.7846 128.139646,8.8392 128.163356,7.89462857 C129.139536,7.61291429 130.105088,7.29722857 131.076364,7.0006 C131.084539,8.24511429 131.064918,9.49045714 131.086992,10.7358 C132.05745,10.7217143 133.028725,10.7324857 134,10.7291714 L134,13.1519143 C133.025455,13.1113143 132.050092,13.1411429 131.075546,13.1378286 C131.079634,14.5306571 131.076364,15.9234857 131.077181,17.3171429 C131.092715,18.0885429 131.036303,18.8640857 131.125418,19.633 C131.179378,20.0862286 131.342074,20.5883429 131.761489,20.8228286 C132.463783,21.2213714 133.354936,21.0473714 134,20.6098857 L134,23.0566571 C133.158719,23.4270286 132.218511,23.5397143 131.308554,23.4742571 C130.445198,23.4096286 129.550775,23.0914571 128.987468,22.3954571 C128.336681,21.6091429 128.169079,20.5444286 128.155998,19.5484857 C128.148639,17.4107714 128.156815,15.2730571 128.152727,13.1345143 C126.716254,13.1336857 125.27978,13.1328571 123.844124,13.1353429 C123.842489,16.4902286 123.843307,19.8451143 123.843307,23.2 C122.862221,23.2 121.880317,23.2 120.899231,23.2 C120.899231,19.8459429 120.895143,16.4927143 120.900866,13.1386571 C120.218194,13.1254 119.534704,13.1419714 118.852032,13.1278857 C118.854484,12.3316286 118.857755,11.5345429 118.850397,10.7374571 C119.529799,10.7217143 120.210018,10.7283429 120.891056,10.7333143 C120.940927,9.6744 120.781501,8.58482857 121.093813,7.55325714 C121.357889,6.62194286 121.944905,5.78177143 122.754301,5.25645714" id="Fill-4"></path>
                <path d="M59.7211592,5.43045714 C60.3147163,5.33931429 60.9573276,5.5448 61.3505796,6.01542857 C61.8116901,6.5308 61.8967175,7.35108571 61.5549725,7.95345714 C61.1772544,8.63288571 60.3318853,8.94857143 59.5952532,8.78534286 C58.8308237,8.64614286 58.1939353,7.92611429 58.2282733,7.12322857 C58.2061989,6.27808571 58.9035876,5.52491429 59.7211592,5.43045714" id="Fill-5"></path>
                <path d="M37.1586333,5.8 C38.5861135,5.8 40.0127761,5.8 41.4402563,5.8 C42.7728981,9.22945714 44.1153508,12.6556 45.4496278,16.0850571 C45.7905552,16.9426286 46.1094082,17.8101429 46.466687,18.6610857 C48.1811348,14.3757143 49.9201098,10.1011143 51.6214765,5.80994286 C52.9941794,5.78757143 54.3676998,5.80497143 55.7412203,5.80165714 C55.73795,11.6008286 55.7395851,17.4 55.7404027,23.1991714 C54.7495058,23.1966857 53.7594265,23.2074571 52.7693472,23.1933714 C52.7799756,18.9138 52.7685296,14.6342286 52.7742526,10.3538286 C52.7758877,10.1616 52.7693472,9.96937143 52.756266,9.77714286 C52.6982184,9.86662857 52.6467114,9.95942857 52.601745,10.0555429 C50.9003783,14.4362 49.1663087,18.8044286 47.4747529,23.1892286 C46.7700061,23.2149143 46.0644417,23.1908857 45.3588774,23.2024857 C43.6035509,18.8218286 41.870299,14.4312286 40.1239658,10.0472571 C40.0781818,9.95611429 40.0291275,9.86745714 39.9759854,9.78211429 C39.9400122,11.6571714 39.9702624,13.5338857 39.9604515,15.4089429 C39.9612691,18.0056857 39.9588164,20.6024286 39.9612691,23.1991714 C39.0267846,23.2016571 38.0923002,23.1991714 37.1586333,23.2 C37.1578157,17.4 37.1569982,11.6 37.1586333,5.8" id="Fill-6"></path>
                <path d="M67.8232947,10.7175714 C69.2442343,10.3074286 70.7763636,10.324 72.1964857,10.7308286 C72.4891763,10.8136857 72.7728737,10.9288571 73.0361318,11.0854571 C73.0197804,12.0358286 73.0361318,12.9870286 73.0271385,13.9382286 C72.0779378,13.2032857 70.8736547,12.7376286 69.6669189,12.8917429 C68.7087248,12.9795714 67.7946797,13.4833429 67.2215619,14.268 C66.4849298,15.2407429 66.3148749,16.5324857 66.4415985,17.7223143 C66.5364369,18.6536286 66.9166077,19.5841143 67.6311653,20.2014 C68.3735204,20.8700571 69.4142892,21.1070286 70.3855644,21.0324571 C71.3453935,20.9206 72.251263,20.5088 73.0271385,19.9337714 C73.0353142,20.8344286 73.0230506,21.7350857 73.0336791,22.6357429 C71.8302135,23.3615714 70.3871995,23.5488286 69.0095912,23.4800571 C67.6000976,23.4046571 66.1946919,22.8636 65.1743624,21.8593714 C64.0657352,20.7764286 63.4640024,19.2319714 63.3928737,17.6850286 C63.3209274,16.0767714 63.6438682,14.3989143 64.5570958,13.0558 C65.3223429,11.9098857 66.5192678,11.0987143 67.8232947,10.7175714" id="Fill-7"></path>
                <path d="M87.7695912,10.5029714 C89.1823551,10.3206857 90.6727883,10.4018857 91.9841733,11.0067429 C93.1222331,11.5270857 94.0444539,12.4890571 94.5554362,13.6407714 C95.1007566,14.8670571 95.2332032,16.2441429 95.1408176,17.574 C95.0500671,18.8723714 94.6478218,20.1732286 93.8466016,21.2048 C93.0265772,22.3001714 91.7904088,23.0425714 90.4667602,23.3184857 C89.335241,23.5571143 88.1513972,23.5562857 87.019878,23.3151714 C85.6659793,23.0218571 84.4126419,22.2256 83.6187797,21.0672571 C82.686748,19.7249714 82.4218548,18.0181143 82.5404027,16.4098571 C82.6205247,15.0452 83.0391214,13.6697714 83.8992068,12.5992571 C84.8410494,11.4003143 86.2856986,10.6927143 87.7695912,10.5029714 Z M88.6476632,12.8710286 C87.943734,12.9108 87.2324466,13.1519143 86.7108359,13.6457429 C85.9913728,14.3061143 85.662709,15.2904571 85.5735937,16.2474571 C85.4754851,17.2997429 85.5466138,18.4092 86.0208054,19.3686857 C86.3895302,20.1135714 87.0672971,20.6985429 87.8660647,20.9114857 C88.6509335,21.1178 89.5052959,21.1004 90.2656376,20.8046 C90.9156071,20.5477429 91.4306772,20.0058571 91.7119219,19.3645429 C92.1370592,18.4133429 92.1787553,17.3436571 92.1264308,16.3170571 C92.0536669,15.3791143 91.7904088,14.3956 91.1101891,13.7178286 C90.4741184,13.0657429 89.5322758,12.8122 88.6476632,12.8710286 Z" id="Combined-Shape"></path>
                <path d="M99.9824771,10.5278286 C101.343734,10.2850571 102.768761,10.4632 104.057254,10.9578571 C104.05889,11.8726 104.057254,12.7865143 104.058072,13.7004286 C103.157926,13.0732 102.058292,12.7359714 100.966016,12.7749143 C100.41579,12.7964571 99.8107871,13.0326 99.5597926,13.5628857 C99.3603051,14.0873714 99.4984747,14.7750857 99.986565,15.0891143 C100.821306,15.6550286 101.817108,15.8953143 102.682099,16.4024 C103.363136,16.7901714 104.023734,17.2972571 104.368749,18.0280571 C105.017084,19.3968571 104.742379,21.2056286 103.602685,22.2264286 C102.514497,23.2571714 100.947212,23.5422 99.5058328,23.4875143 C98.4822331,23.4204 97.4537279,23.2157429 96.5127029,22.7915143 C96.5167907,21.8295429 96.5069799,20.8684 96.5176083,19.9072571 C97.3090177,20.4897429 98.2222453,20.9065143 99.188615,21.0755429 C99.8614765,21.1865714 100.593203,21.1915429 101.220281,20.8866286 C101.820378,20.5842 101.928298,19.72 101.571836,19.1913714 C101.238267,18.7837143 100.748542,18.5591714 100.286614,18.3387714 C99.4191702,17.9435429 98.5075778,17.6129429 97.745601,17.0205143 C97.2100915,16.5971143 96.804576,16.0005429 96.6459671,15.3277429 C96.4105064,14.3359429 96.4840879,13.2182 97.0531178,12.3515143 C97.7030872,11.3414857 98.8321538,10.7358 99.9824771,10.5278286" id="Fill-9"></path>
                <path d="M111.234716,10.4988286 C112.703893,10.3140571 114.263819,10.4143143 115.604637,11.1003714 C116.773764,11.6928 117.680451,12.7633143 118.133386,14.0012 C118.487395,14.9482571 118.611666,15.9707143 118.591226,16.9790857 C118.593679,18.4854286 118.192251,20.0315429 117.259402,21.2263429 C116.386236,22.3830286 115.050323,23.1345429 113.640012,23.3706857 C112.260769,23.5968857 110.803856,23.5380571 109.493289,23.0152286 C108.165552,22.4857714 107.06183,21.4053143 106.502611,20.0746286 C105.919683,18.7182571 105.858365,17.1920286 106.039866,15.7428571 C106.23036,14.2936857 106.877877,12.8768286 107.981599,11.9132 C108.885833,11.1086571 110.050055,10.6529429 111.234716,10.4988286 Z M112.029396,12.8735143 C111.215095,12.9199143 110.407334,13.2753714 109.880818,13.9183429 C109.303612,14.6068857 109.055888,15.5158286 108.988847,16.4015714 C108.919353,17.3163143 108.988847,18.2633714 109.33795,19.1184571 C109.628188,19.836 110.179231,20.4599143 110.890519,20.7648286 C111.549481,21.0523429 112.291836,21.1037143 112.996583,20.9968286 C113.653093,20.8990571 114.289164,20.5808857 114.716754,20.0588857 C115.141074,19.5393714 115.365088,18.8848 115.477913,18.2285714 C115.620171,17.3478 115.621806,16.4405143 115.453386,15.5638857 C115.303771,14.8165143 114.977559,14.0741143 114.38809,13.5786286 C113.748749,13.0094 112.860866,12.8146857 112.029396,12.8735143 Z" id="Combined-Shape"></path>
                <path d="M79.619219,10.9205714 C80.4318853,10.4259143 81.4644783,10.3844857 82.3515436,10.6869143 C82.3474558,11.6820286 82.3515436,12.6771429 82.3490909,13.6722571 C81.768615,13.2911143 81.0442465,13.1278857 80.3591214,13.1983143 C79.5235631,13.2944286 78.8613301,13.9448571 78.51795,14.6905714 C78.1451373,15.4802 78.0748261,16.3734 78.0985357,17.2367714 C78.0985357,19.2245143 78.0993533,21.2122571 78.0985357,23.2 C77.1305308,23.2 76.1633435,23.2 75.1961562,23.2 C75.1937035,19.0455429 75.1994265,14.8902571 75.1937035,10.7358 C76.1625259,10.7233714 77.1313484,10.7283429 78.1001708,10.7333143 C78.096083,11.4467143 78.1001708,12.1601143 78.0977181,12.8743429 C78.4124832,12.0979714 78.8809518,11.3439714 79.619219,10.9205714" id="Fill-11"></path>
                <path d="M58.4956193,10.7333143 C59.4717999,10.7291714 60.448798,10.7192286 61.4249786,10.7382857 C61.4135326,14.8919143 61.4241611,19.0463714 61.4200732,23.2 C60.4455278,23.2 59.4709823,23.2 58.4972544,23.2 C58.4948017,19.0447143 58.498072,14.8894286 58.4956193,10.7333143" id="Fill-12"></path>
                <path d="M0,15.2034571 C4.53752288,15.2051143 9.07504576,15.2026286 13.6125686,15.2051143 C13.6133862,19.8036857 13.6125686,24.4014286 13.6125686,29 L0,29 L0,15.2034571" id="Fill-16"></path>
                <path d="M15.0032581,15.2051143 C19.5399634,15.2034571 24.0774863,15.2042857 28.6150092,15.2042857 C28.6150092,19.8028571 28.6150092,24.4014286 28.6150092,29 L15.0024405,29 C15.0032581,24.4014286 15.0016229,19.8028571 15.0032581,15.2051143" id="Fill-17"></path>
            </g>
        </g>
    </g>
</svg>