<svg xmlns="http://www.w3.org/2000/svg" width="144" height="80" viewBox="0 0 144 80" fill="none"><g clip-path="url(#clip0_2432_611)"><path d="M143.991 57.2788C144.021 57.0196 143.995 56.7569 143.916 56.5085C143.836 56.2601 143.704 56.0317 143.528 55.8385C143.353 55.6453 143.138 55.4919 142.899 55.3884C142.659 55.285 142.4 55.234 142.139 55.2388C141.584 55.2494 141.052 55.4627 140.643 55.8384C140.234 56.2142 139.977 56.7265 139.92 57.2788C139.89 57.5376 139.916 57.7998 139.996 58.0477C140.076 58.2957 140.208 58.5236 140.384 58.7161C140.559 58.9086 140.774 59.0613 141.013 59.1637C141.253 59.2662 141.512 59.3162 141.772 59.3102C142.327 59.303 142.86 59.092 143.269 58.7174C143.678 58.3428 143.935 57.8307 143.991 57.2788ZM143.701 57.2532C143.65 57.732 143.425 58.1756 143.07 58.5008C142.715 58.8261 142.254 59.0107 141.772 59.02C141.552 59.0248 141.334 58.9825 141.132 58.8958C140.93 58.8091 140.749 58.6802 140.601 58.5176C140.453 58.355 140.341 58.1626 140.274 57.9533C140.207 57.7441 140.185 57.5228 140.21 57.3044C140.262 56.8256 140.486 56.3821 140.841 56.0569C141.196 55.7316 141.658 55.547 142.139 55.5375C142.359 55.5335 142.577 55.5763 142.778 55.6632C142.98 55.7501 143.161 55.8791 143.309 56.0415C143.457 56.2039 143.568 56.396 143.636 56.605C143.704 56.8139 143.726 57.0349 143.701 57.2532ZM142.293 57.5263L142.617 58.4739H142.301L141.986 57.5523H141.533L141.363 58.4741H141.064L141.516 56.0756H142.301C142.383 56.0732 142.465 56.0869 142.541 56.1161C142.618 56.1453 142.688 56.1893 142.747 56.2456C142.807 56.3019 142.855 56.3694 142.888 56.4443C142.921 56.5191 142.94 56.5998 142.942 56.6817C142.94 56.8738 142.875 57.0601 142.758 57.2125C142.641 57.3649 142.478 57.4748 142.293 57.5263ZM142.301 56.3655H141.755L141.584 57.2617H142.079C142.213 57.2554 142.341 57.2051 142.443 57.1186C142.544 57.0322 142.615 56.9144 142.643 56.7837C142.654 56.733 142.653 56.6805 142.641 56.6301C142.629 56.5796 142.606 56.5326 142.573 56.4924C142.54 56.4522 142.499 56.42 142.452 56.398C142.405 56.376 142.353 56.3649 142.301 56.3655ZM75.4357 35.8676C75.4583 36.6325 75.3239 37.3939 75.0408 38.1048C74.7578 38.8157 74.332 39.4611 73.7899 40.0011C72.3381 41.4422 69.983 42.228 67.1512 42.2063C65.3275 42.222 63.5272 41.796 61.9039 40.9648L62.6781 36.8941C64.2145 37.7299 65.9188 38.2103 67.6655 38.3C68.9871 38.3 69.8774 37.6902 69.8774 36.712C69.8774 35.8253 69.2516 35.2056 67.6529 34.4235C65.1243 33.1591 63.8591 31.5561 63.8591 29.6669C63.8591 25.9498 67.0252 23.4378 71.7755 23.4378C73.5377 23.3486 75.2895 23.7556 76.832 24.6123L76.0595 28.6752C74.6993 27.8222 73.1246 27.3733 71.519 27.3808C70.1348 27.3808 69.2329 27.9608 69.2329 28.9315C69.2329 29.6278 69.9228 30.2518 71.3834 30.9637C73.2865 31.9144 75.4357 33.3218 75.4357 35.8676ZM42.5097 23.4751C35.8177 23.4751 30.776 28.3615 30.776 34.8415C30.776 39.3167 33.7497 42.2064 38.3624 42.2064C40.1195 42.2492 41.8659 41.9213 43.4878 41.2441L44.3332 36.7795C42.9628 37.5276 41.4283 37.9244 39.867 37.9343C38.1801 37.9343 36.3706 36.9636 36.3706 34.2543C36.3706 31.0616 38.635 27.7482 42.4357 27.7482C43.4628 27.7175 44.4796 27.9596 45.3826 28.4498L46.2099 24.109C45.0258 23.6728 43.7716 23.458 42.5097 23.4751ZM136.34 38.0435C138.555 38.0485 140.728 37.4354 142.613 36.2732L141.758 40.7673C139.658 41.7363 137.369 42.2282 135.056 42.2076C130.088 42.2076 127.248 39.4448 127.248 34.6211C127.255 31.8223 128.246 29.1151 130.049 26.9742C130.993 25.8574 132.17 24.9617 133.498 24.3506C134.826 23.7395 136.273 23.428 137.735 23.4381C141.493 23.4381 144 25.6218 144 28.859C144.025 29.5365 143.909 30.2118 143.66 30.8424C143.411 31.473 143.034 32.0451 142.553 32.5228C140.758 34.2721 136.334 35.2525 132.305 34.4612C132.113 36.7318 133.822 38.0435 136.34 38.0435ZM132.889 30.9973C136.023 31.0231 137.785 30.7061 138.555 29.9444C139.387 29.1169 139.127 27.344 137.074 27.344C134.764 27.3441 133.293 29.2377 132.889 30.9973ZM124.546 23.4749C117.854 23.4749 112.813 28.3614 112.813 34.8414C112.813 39.3166 115.786 42.2063 120.399 42.2063C122.156 42.249 123.903 41.9211 125.525 41.2439L126.37 36.7793C125 37.5275 123.465 37.9243 121.904 37.9341C120.217 37.9341 118.407 36.9636 118.407 34.2541C118.407 31.0614 120.672 27.7481 124.472 27.7481C125.499 27.7173 126.516 27.9594 127.419 28.4496L128.247 24.1089C127.062 23.6728 125.808 23.4578 124.546 23.4749ZM111.934 31.7627L110.008 41.8399H104.908L105.571 38.3714C105.237 39.526 104.525 40.5351 103.549 41.2372C102.574 41.9393 101.391 42.2937 100.19 42.2437C96.6416 42.2437 95.0381 39.094 95.0363 35.9418C95.0133 32.4121 96.3615 29.0114 98.7968 26.4563C99.7598 25.4845 100.909 24.7164 102.175 24.1978C103.441 23.6793 104.798 23.4208 106.166 23.4378C108.333 23.4465 109.936 24.0736 110.94 25.2908C112.427 27.0922 112.305 29.7964 111.934 31.7627ZM107.024 29.4445C106.962 28.1738 106.3 27.4887 105.114 27.4887C102.602 27.4887 100.427 31.8236 100.428 34.8381C100.429 36.7216 101.127 37.8945 102.342 37.8945C104.284 37.8945 105.958 35.8629 106.533 32.888C106.795 31.7563 106.959 30.6042 107.024 29.4445ZM29.8975 31.7627L27.972 41.8399H22.872L23.5348 38.3714C23.2006 39.5261 22.4886 40.5352 21.5129 41.2373C20.5371 41.9394 19.3541 42.2937 18.153 42.2437C14.605 42.2437 13.0015 39.094 12.9996 35.9418C12.9766 32.4121 14.3249 29.0114 16.7602 26.4563C17.7232 25.4845 18.8719 24.7164 20.138 24.1978C21.404 23.6793 22.7615 23.4208 24.1295 23.4378C26.2962 23.4465 27.899 24.0736 28.9033 25.2908C30.3904 27.0922 30.2685 29.7964 29.8975 31.7627ZM24.9875 29.4445C24.9252 28.1738 24.2638 27.4887 23.0776 27.4887C20.5661 27.4887 18.3903 31.8236 18.3922 34.8381C18.3929 36.7216 19.0909 37.8945 20.3056 37.8945C22.2482 37.8945 23.9213 35.8629 24.4969 32.888C24.7588 31.7563 24.9229 30.6042 24.9875 29.4445ZM94.6798 30.2905C94.6798 34.6685 92.5774 39.1575 88.789 41.1773C87.5992 41.8383 86.2681 42.204 84.9075 42.2436C83.0108 42.2436 81.9475 41.5345 81.3413 40.4413L79.985 47.6097H74.6456L79.1786 23.7695H83.8815L83.3317 26.6635C83.9186 25.7153 84.729 24.9254 85.6919 24.3631C86.6549 23.8007 87.741 23.483 88.8552 23.4378C92.3886 23.4378 94.6798 26.1159 94.6798 30.2905ZM89.1269 30.6949C89.1269 29.8462 88.9265 27.7853 86.9708 27.7853C84.9821 27.7853 83.3032 30.051 82.6524 33.4875C82.4296 34.6625 81.8062 38.1905 84.2628 38.1905C87.0673 38.1905 89.1269 34.2094 89.1269 30.6949ZM7.43876 27.7755L8.1999 23.7695H3.4973L0 42.1579H5.34026L6.7823 34.5761C7.63257 30.1054 10.1975 28.3163 13.8478 28.8687L14.8907 23.3839C13.3448 23.2414 11.7933 23.5888 10.4559 24.377C9.11842 25.1652 8.06304 26.3541 7.43876 27.7755ZM50.2696 41.8399L52.1089 32.1647L55.8948 41.8399H61.637L57.7199 32.0872L64.8487 23.7692H59.0193L52.1409 31.9963L54.8017 18H49.4986L44.9661 41.8399H50.2696ZM111.711 54.481C111.711 57.0856 109.908 59.3103 107.305 59.3103C106.887 59.3321 106.469 59.2653 106.078 59.1143C105.688 58.9633 105.334 58.7315 105.039 58.4341C104.745 58.1367 104.516 57.7803 104.369 57.3885C104.222 56.9966 104.159 56.578 104.185 56.1602C104.185 53.5725 105.989 51.3311 108.592 51.3311C109.01 51.31 109.427 51.3772 109.817 51.5285C110.207 51.6797 110.561 51.9116 110.855 52.2088C111.15 52.5061 111.378 52.8621 111.526 53.2537C111.673 53.6452 111.736 54.0634 111.711 54.481ZM106.067 56.1128C106.067 57.1623 106.615 57.9007 107.556 57.9007C108.921 57.9007 109.83 56.0193 109.83 54.4963C109.83 53.7134 109.47 52.7406 108.371 52.7406C106.914 52.7406 106.067 54.6864 106.067 56.1128ZM124.137 54.481C124.137 57.0856 122.333 59.3103 119.73 59.3103C119.312 59.3321 118.894 59.2653 118.504 59.1143C118.114 58.9633 117.76 58.7315 117.465 58.4341C117.17 58.1367 116.942 57.7803 116.795 57.3885C116.648 56.9966 116.585 56.578 116.611 56.1602C116.611 53.5725 118.414 51.3311 121.017 51.3311C121.435 51.31 121.853 51.3773 122.243 51.5286C122.633 51.6798 122.986 51.9117 123.281 52.2089C123.575 52.5062 123.804 52.8622 123.951 53.2537C124.098 53.6452 124.162 54.0634 124.137 54.481ZM118.492 56.1128C118.492 57.1623 119.041 57.9007 119.982 57.9007C121.347 57.9007 122.255 56.0193 122.255 54.4963C122.255 53.7134 121.895 52.7406 120.797 52.7406C119.339 52.7406 118.492 54.6864 118.492 56.1128ZM114.443 49.004L112.515 59.1387H114.336L116.277 49.004H114.443ZM85.0109 51.3464C84.3682 51.3419 83.731 51.4662 83.1371 51.712C82.5432 51.9578 82.0045 52.3201 81.5529 52.7776C81.1014 53.235 80.746 53.7783 80.5079 54.3753C80.2697 54.9724 80.1536 55.6111 80.1664 56.2537C80.1404 56.664 80.2028 57.075 80.3494 57.4591C80.4961 57.8431 80.7236 58.1911 81.0165 58.4795C81.3094 58.7679 81.6609 58.99 82.0472 59.1307C82.4334 59.2714 82.8454 59.3274 83.2552 59.295C84.0312 59.3116 84.8009 59.1521 85.5065 58.8286L85.8078 57.2444C85.1863 57.6133 84.4788 57.8121 83.7562 57.8209C83.5229 57.8344 83.2894 57.7965 83.0724 57.7099C82.8553 57.6234 82.6599 57.4902 82.4999 57.3198C82.3399 57.1495 82.2192 56.9461 82.1464 56.724C82.0736 56.5019 82.0505 56.2666 82.0785 56.0345C82.034 55.228 82.3111 54.4368 82.849 53.8342C83.3869 53.2317 84.1418 52.867 84.9482 52.8202C85.4404 52.8115 85.9259 52.9344 86.3547 53.1762L86.6434 51.6576C86.1254 51.4463 85.5704 51.3405 85.0109 51.3464ZM74.5806 57.0856C74.4175 56.7492 74.3471 56.3752 74.3768 56.0025C77.3246 56.0653 79.3776 55.4371 79.3776 53.4791C79.3776 52.1921 78.4216 51.3311 76.9156 51.3311C74.2819 51.3311 72.5889 53.8391 72.5889 56.1434C72.5889 58.0095 73.6078 59.3103 75.7251 59.3103C76.7321 59.3199 77.7251 59.0736 78.611 58.5945L78.9235 56.9506C78.1228 57.5504 77.1484 57.8727 76.148 57.8685C75.8401 57.8942 75.5311 57.8347 75.2546 57.6967C74.9782 57.5587 74.7452 57.3471 74.5806 57.0856ZM76.6811 52.6946C77.2618 52.6946 77.6525 52.9918 77.6525 53.4793C77.6525 54.4031 76.4452 54.6544 74.5638 54.6376C74.6525 54.1254 74.9083 53.6569 75.2913 53.3054C75.6743 52.9539 76.1632 52.7391 76.6811 52.6946ZM102.926 53.43C102.962 53.1591 102.938 52.8836 102.855 52.6232C102.773 52.3627 102.633 52.1238 102.448 51.9233C102.262 51.7228 102.034 51.5658 101.781 51.4634C101.528 51.361 101.255 51.3158 100.982 51.3311C100.419 51.3384 99.8676 51.4893 99.3796 51.7696C98.8915 52.0498 98.4831 52.45 98.193 52.9323L98.4758 51.4567H96.8294L95.3682 59.1387H97.1883L97.864 55.6118C98.1934 53.8223 99.2413 52.8202 100.072 52.8202C100.793 52.8202 101.029 53.2737 101.029 53.9172C101.027 54.2227 100.997 54.5273 100.939 54.8273L100.119 59.1387H101.939L102.792 54.6864C102.874 54.2724 102.919 53.8519 102.926 53.43ZM92.3531 51.3311C91.8614 51.3336 91.3768 51.4488 90.9366 51.6678C90.4963 51.8867 90.112 52.2036 89.8133 52.5942L90.5011 49.0039H88.667L86.7394 59.1386H88.5595L89.2352 55.6117C89.5646 53.8222 90.6126 52.8202 91.443 52.8202C92.1646 52.8202 92.4006 53.2737 92.4006 53.9172C92.3979 54.2226 92.3677 54.5272 92.3105 54.8272L91.4905 59.1386H93.3103L94.1633 54.6863C94.2448 54.2723 94.2896 53.8518 94.297 53.4299C94.333 53.159 94.3088 52.8836 94.2261 52.6231C94.1434 52.3627 94.0042 52.1237 93.8186 51.9233C93.6329 51.7228 93.4052 51.5658 93.1519 51.4634C92.8985 51.3611 92.6259 51.3159 92.3531 51.3311ZM71.1602 49.5374H69.3844L68.9944 51.5026H67.9755L67.709 52.9137H68.7294L68.0706 56.3165C67.9711 56.7804 67.9182 57.2531 67.9128 57.7276C67.9128 58.6055 68.4629 59.295 69.7161 59.295C70.1192 59.3092 70.522 59.2564 70.9079 59.1387L71.1833 57.6912C70.9428 57.7389 70.698 57.762 70.4528 57.76C70.3599 57.7722 70.2655 57.7626 70.1769 57.7319C70.0884 57.7013 70.0082 57.6504 69.9428 57.5833C69.8773 57.5162 69.8284 57.4348 69.7999 57.3455C69.7715 57.2562 69.7642 57.1616 69.7787 57.069C69.789 56.7046 69.8361 56.3422 69.9193 55.9873L70.5154 52.9139H72.2254L72.5073 51.5029H70.7973L71.1602 49.5374ZM132.499 61.9923C133.898 62.6394 135.277 62.353 136.276 60.5649V60.5619L141.384 51.4567H139.44L136.539 57.1407L135.834 51.4567H133.921L135.282 58.9333L134.686 60.1269C134.591 60.2818 134.464 60.4153 134.314 60.5191C134.165 60.6228 133.995 60.6945 133.816 60.7297C133.638 60.7649 133.454 60.7629 133.276 60.7237C133.098 60.6845 132.93 60.609 132.783 60.502L132.499 61.9923ZM130.014 51.3311C126.767 51.3311 125.104 54.2019 125.104 56.6178C125.104 57.9826 125.779 59.3161 127.41 59.3161C127.913 59.3134 128.407 59.1877 128.849 58.95C129.292 58.7124 129.669 58.37 129.949 57.9527L129.802 58.6208C129.427 60.3934 128.517 60.9573 127.325 60.9573C126.629 60.9659 125.942 60.81 125.318 60.5023L125.035 61.9923C125.747 62.2923 126.514 62.4366 127.287 62.4158C128.306 62.4659 129.312 62.1671 130.138 61.5686C131.01 60.8485 131.439 59.6565 131.723 58.1673L132.415 54.7041C132.513 54.2717 132.566 53.83 132.572 53.3865C132.571 52.0059 131.615 51.3311 130.014 51.3311ZM130.595 54.6098L130.454 55.3157C130.14 56.8532 129.167 57.8258 128.226 57.8258C127.379 57.8258 127.018 57.12 127.018 56.2884C127.018 54.7825 128.069 52.7277 129.669 52.7277C129.803 52.7115 129.939 52.7251 130.067 52.7676C130.194 52.81 130.311 52.8803 130.409 52.9732C130.506 53.0662 130.582 53.1797 130.63 53.3054C130.679 53.4311 130.699 53.566 130.689 53.7003C130.693 54.0062 130.662 54.3114 130.595 54.6098Z" fill="black"></path></g><defs><clipPath id="clip0_2432_611"><rect width="144" height="44.4158" fill="white" transform="translate(0 18)"></rect></clipPath></defs></svg>