<svg xmlns="http://www.w3.org/2000/svg" fill="currentColor" height="80" viewBox="0 0 144 80" width="144"><path d="m30.0669 22.0199h-24.03328c-3.33171 0-6.03191102 2.69-6.03191102 6.009v23.9422c0 3.3191 2.70020102 6.009 6.03191102 6.009h24.03328c3.3317 0 6.0319-2.6899 6.0319-6.009v-23.9422c0-3.319-2.7002-6.009-6.0319-6.009zm-.5299 27.5252c0 1.0485-.8529 1.8981-1.9054 1.8981h-19.16272c-1.0525 0-1.90538-.8496-1.90538-1.8981v-19.0901c0-1.0485.85288-1.8982 1.90538-1.8982h19.16272c1.0525 0 1.9054.8497 1.9054 1.8982zm-15.3157-4.6641c-.6061 0-1.0924-.4881-1.0924-1.0919v-7.6216c0-.6038.4863-1.0955 1.0924-1.0955h7.6615c.6025 0 1.0924.4881 1.0924 1.0955v7.618c0 .6038-.4899 1.0919-1.0924 1.0919h-7.6615zm31.448-.5206h3.9414c.196 2.2235 1.7094 3.959 4.7617 3.959 2.7256 0 4.4023-1.3414 4.4023-3.3697 0-1.8982-1.3138-2.7478-3.6801-3.3046l-3.0559-.6544c-3.3172-.7195-5.8141-2.8455-5.8141-6.3164 0-3.8289 3.4151-6.4465 7.8501-6.4465 4.6964 0 7.7196 2.4549 7.9809 6.085h-3.8108c-.4536-1.6994-1.8691-2.7117-4.1664-2.7117-2.4317 0-4.1048 1.3088-4.1048 2.9792s1.4445 2.6827 3.9415 3.2395l3.0232.6545c3.3172.7194 5.5818 2.7152 5.5818 6.2151 0 4.4507-3.3498 7.1009-8.1441 7.1009-5.3895-.0036-8.3765-2.9141-8.7067-7.4299zm30.9507 13.6197v-6.5116l.2577-2.8563h-.2577c-.9037 2.0537-2.8018 3.1781-5.3786 3.1781-4.1556 0-7.2478-3.3697-7.2478-8.5363s3.0922-8.5363 7.2478-8.5363c2.5441 0 4.3479 1.1859 5.3786 3.0479h.2577v-2.7297h3.4152v22.9442zm.127-14.7297c0-3.3046-2.0288-5.2317-4.5112-5.2317s-4.5112 1.9271-4.5112 5.2317 2.0288 5.2317 4.5112 5.2317 4.5112-1.9235 4.5112-5.2317zm6.2715 1.7029v-9.9174h3.6728v9.5956c0 2.5996 1.2558 3.8506 3.3499 3.8506 2.5768 0 4.2535-1.8295 4.2535-4.6858v-8.7604h3.6729v16.429h-3.4152v-3.4022h-.2577c-.8057 2.1838-2.5768 3.724-5.3133 3.724-3.9342 0-5.9629-2.502-5.9629-6.8334zm17.1845 1.9235c0-3.0805 2.16-4.8774 5.992-5.1016l4.54-.2892v-1.2835c0-1.5402-1.128-2.4694-3.124-2.4694-1.837 0-2.933.9292-3.223 2.2452h-3.673c.388-3.3371 3.157-5.2642 6.892-5.2642 4.221 0 6.798 1.7969 6.798 5.2642v11.4866h-3.415v-3.0479h-.258c-.773 2.0211-2.385 3.3697-5.477 3.3697-2.958 0-5.052-1.9886-5.052-4.9099zm10.536-2.0211v-.8677l-3.705.2567c-1.997.1265-2.9.8677-2.9 2.3428 0 1.251 1.03 2.1513 2.479 2.1513 2.613 0 4.126-1.6668 4.126-3.8831zm6.406 6.6128v-16.4326h3.415v3.1455h.258c.482-2.1513 2.126-3.1455 4.573-3.1455h1.676v3.3046h-2.094c-2.384 0-4.155 1.5402-4.155 4.4616v8.6628h-3.673zm26.726-7.542h-12.532c.192 3.0154 2.319 4.7183 4.671 4.7183 1.996 0 3.252-.8027 3.963-2.1513h3.64c-.998 3.3372-3.93 5.2932-7.636 5.2932-4.863 0-8.278-3.6264-8.278-8.5363s3.509-8.5363 8.311-8.5363c4.831 0 7.988 3.3046 7.988 7.4119.004.8062-.062 1.222-.127 1.8005zm-3.509-2.5345c-.128-2.2778-2.029-3.818-4.348-3.818-2.192 0-4.025 1.3811-4.479 3.818z" fill="#000"></path></svg>